<?xml version="1.0" standalone="no"?>
<!DOCTYPE svg PUBLIC "-//W3C//DTD SVG 20010904//EN"
 "http://www.w3.org/TR/2001/REC-SVG-20010904/DTD/svg10.dtd">
<svg version="1.0" xmlns="http://www.w3.org/2000/svg"
 width="512.000000pt" height="512.000000pt" viewBox="0 0 512.000000 512.000000"
 preserveAspectRatio="xMidYMid meet">

<g transform="translate(0.000000,512.000000) scale(0.100000,-0.100000)"
fill="#000000" stroke="none">
<path d="M1485 4950 c-11 -4 -206 -194 -432 -422 l-413 -414 0 -206 0 -207
-178 -108 c-214 -131 -275 -185 -292 -264 -8 -40 -10 -439 -8 -1524 l3 -1470
22 -40 c25 -47 64 -85 113 -111 34 -18 108 -19 2260 -19 2152 0 2226 1 2260
19 49 26 88 64 113 111 l22 40 3 1470 c2 1066 0 1484 -8 1523 -17 79 -73 130
-287 262 l-183 112 -2 609 c-3 568 -4 609 -21 626 -17 17 -91 18 -1485 20
-807 1 -1476 -2 -1487 -7z m2835 -1077 l0 -928 -806 -500 c-443 -275 -826
-510 -852 -522 -31 -15 -66 -23 -102 -23 -36 0 -71 8 -102 23 -25 12 -409 247
-852 522 l-806 500 0 528 0 527 296 0 c204 0 310 4 338 12 55 16 138 99 154
154 8 28 12 134 12 338 l0 296 1360 0 1360 0 0 -927z m-2890 333 c-5 -15 -21
-31 -35 -36 -15 -6 -128 -10 -253 -10 l-227 0 260 260 260 260 3 -224 c1 -132
-2 -235 -8 -250z m-65 -1802 c561 -347 1043 -640 1070 -649 62 -22 182 -23
247 -2 26 8 473 279 993 602 521 323 949 585 951 582 10 -10 -28 -240 -61
-377 -50 -201 -106 -355 -205 -555 -399 -811 -1134 -1349 -2050 -1502 -93 -15
-208 -17 -1047 -20 l-943 -4 0 1286 c0 1026 3 1285 13 1279 6 -4 471 -292
1032 -640z"/>
<path d="M2450 4154 c-219 -40 -376 -118 -511 -253 -114 -114 -192 -254 -235
-421 -26 -102 -26 -306 0 -404 87 -329 318 -560 651 -652 46 -13 118 -18 307
-21 l247 -5 25 26 c31 30 34 74 7 107 -19 24 -22 24 -268 30 -237 5 -252 7
-328 33 -123 42 -201 90 -291 180 -90 90 -143 175 -182 294 -22 67 -25 95 -26
212 0 119 3 144 26 212 40 120 92 204 182 293 93 91 176 144 291 182 71 24 95
27 215 27 117 -1 145 -4 212 -26 119 -39 204 -92 294 -182 90 -90 143 -176
182 -294 21 -66 25 -96 26 -214 1 -149 -4 -165 -68 -212 -39 -29 -133 -29
-172 0 -59 43 -67 65 -75 192 -4 64 -14 137 -23 162 -39 107 -130 199 -239
243 -73 29 -211 29 -285 0 -106 -43 -198 -136 -238 -243 -23 -61 -23 -209 0
-270 26 -71 85 -148 144 -190 77 -56 140 -75 242 -74 101 0 167 23 248 84 l53
40 36 -36 c60 -61 134 -89 228 -88 66 0 89 5 131 26 75 39 107 70 145 140 l34
63 0 150 c-1 113 -5 167 -19 219 -87 328 -316 559 -641 648 -68 19 -269 32
-325 22z m184 -646 c86 -26 166 -136 166 -228 0 -124 -116 -240 -240 -240
-124 0 -240 116 -240 240 0 63 23 114 75 165 70 71 145 90 239 63z"/>
</g>
</svg>
